<svg width="20" height="18" viewBox="0 0 20 18" fill="none" xmlns="http://www.w3.org/2000/svg">
<g filter="url(#filter0_d_34_34)">
<path d="M5.83333 15.5C5.375 15.5 4.98278 15.3369 4.65667 15.0108C4.33 14.6842 4.16667 14.2917 4.16667 13.8333V3H3.33333V1.33333H7.5V0.5H12.5V1.33333H16.6667V3H15.8333V13.8333C15.8333 14.2917 15.6703 14.6842 15.3442 15.0108C15.0175 15.3369 14.625 15.5 14.1667 15.5H5.83333ZM14.1667 3H5.83333V13.8333H14.1667V3ZM7.5 12.1667H9.16667V4.66667H7.5V12.1667ZM10.8333 12.1667H12.5V4.66667H10.8333V12.1667Z" fill="black"/>
<path d="M4.66667 3V2.5H4.16667H3.83333V1.83333H7.5H8V1.33333V1H12V1.33333V1.83333H12.5H16.1667V2.5H15.8333H15.3333V3V13.8333C15.3333 14.158 15.2237 14.4237 14.9906 14.6573C14.757 14.8903 14.4913 15 14.1667 15H5.83333C5.50853 15 5.24322 14.8903 5.01022 14.6573C4.77648 14.4235 4.66667 14.1579 4.66667 13.8333V3ZM14.6667 3V2.5H14.1667H5.83333H5.33333V3V13.8333V14.3333H5.83333H14.1667H14.6667V13.8333V3ZM8.66667 5.16667V11.6667H8V5.16667H8.66667ZM12 5.16667V11.6667H11.3333V5.16667H12Z" stroke="black"/>
</g>
<defs>
<filter id="filter0_d_34_34" x="-0.666668" y="0.5" width="21.3333" height="23" filterUnits="userSpaceOnUse" color-interpolation-filters="sRGB">
<feFlood flood-opacity="0" result="BackgroundImageFix"/>
<feColorMatrix in="SourceAlpha" type="matrix" values="0 0 0 0 0 0 0 0 0 0 0 0 0 0 0 0 0 0 127 0" result="hardAlpha"/>
<feOffset dy="4"/>
<feGaussianBlur stdDeviation="2"/>
<feComposite in2="hardAlpha" operator="out"/>
<feColorMatrix type="matrix" values="0 0 0 0 0 0 0 0 0 0 0 0 0 0 0 0 0 0 0.25 0"/>
<feBlend mode="normal" in2="BackgroundImageFix" result="effect1_dropShadow_34_34"/>
<feBlend mode="normal" in="SourceGraphic" in2="effect1_dropShadow_34_34" result="shape"/>
</filter>
</defs>
</svg>
