<svg width="12" height="18" viewBox="0 0 12 18" fill="none" xmlns="http://www.w3.org/2000/svg">
<path d="M9.33333 0.666672H2.66666C2.00362 0.666672 1.36774 0.930064 0.898896 1.3989C0.430055 1.86775 0.166663 2.50363 0.166663 3.16667V16.5C0.16608 16.6468 0.204309 16.7912 0.277478 16.9186C0.350647 17.0459 0.456159 17.1516 0.58333 17.225C0.710012 17.2981 0.853716 17.3367 0.999996 17.3367C1.14628 17.3367 1.28998 17.2981 1.41666 17.225L6 14.575L10.5833 17.225C10.7103 17.297 10.854 17.3343 11 17.3333C11.146 17.3343 11.2897 17.297 11.4167 17.225C11.5438 17.1516 11.6493 17.0459 11.7225 16.9186C11.7957 16.7912 11.8339 16.6468 11.8333 16.5V3.16667C11.8333 2.50363 11.5699 1.86775 11.1011 1.3989C10.6323 0.930064 9.99637 0.666672 9.33333 0.666672ZM10.1667 15.0583L6.41666 12.8917C6.28998 12.8185 6.14628 12.78 6 12.78C5.85372 12.78 5.71001 12.8185 5.58333 12.8917L1.83333 15.0583V3.16667C1.83333 2.94566 1.92113 2.7337 2.07741 2.57742C2.23369 2.42114 2.44565 2.33334 2.66666 2.33334H9.33333C9.55434 2.33334 9.7663 2.42114 9.92258 2.57742C10.0789 2.7337 10.1667 2.94566 10.1667 3.16667V15.0583Z" fill="black"/>
</svg>
